# xmcd CD database file
#
# Track frame offsets:
#	182
#	13455
#	28007
#	41525
#	56802
#	63770
#	79177
#	95620
#	109030
#	124995
#	140732
#	156170
#	169247
#	183217
#	197807
#	211505
#	222592
#	237455
#	251067
#	266027
#	280815
#	292807
#	306342
#	320507
#	333960
#
# Disc length: 4662 seconds
#
# Revision: 0
# Processed by: cddbd v1.4PL0 Copyright (c) Steve Scherf et al.
# Submitted via: CDex 1.51
#
DISCID=7f123419
DTITLE=Glenn Miller - The Classic Tracks 1940 - 1942
DYEAR=1900
DGENRE=Jazz
TTITLE0=Bugle Call Rag
TTITLE1=My Blue Heaven
TTITLE2=Beat me, Daddy
TTITLE3=Anvil Chorus (part 1)
TTITLE4=Anvil Chorus (part 2)
TTITLE5=Song of the Volga Boatmen
TTITLE6=I dream't i dwelt in Harlem
TTITLE7=sun valley jump
TTITLE8=the spirit is willing
TTITLE9=boulder bluff
TTITLE10=chattanooga choo choo
TTITLE11=adios
TTITLE12=elmer's tune
TTITLE13=a string of pearls
TTITLE14=long tall mama
TTITLE15=the slumber song
TTITLE16=moonlight cocktail
TTITLE17=keep'em flying
TTITLE18=american patrol
TTITLE19=(i've got a gal in) kalamazoo
TTITLE20=caribbean clipper
TTITLE21=here we go again
TTITLE22=juke box saturday night
TTITLE23=it must be jelly ('cause i don't shake like that)
TTITLE24=st louis blues march
EXTD=
EXTT0=
EXTT1=
EXTT2=
EXTT3=
EXTT4=
EXTT5=
EXTT6=
EXTT7=
EXTT8=
EXTT9=
EXTT10=
EXTT11=
EXTT12=
EXTT13=
EXTT14=
EXTT15=
EXTT16=
EXTT17=
EXTT18=
EXTT19=
EXTT20=
EXTT21=
EXTT22=
EXTT23=
EXTT24=
PLAYORDER=
